<svg xmlns="http://www.w3.org/2000/svg" width="1200" height="630" viewBox="0 0 1200 630" role="img" aria-label="每日科技新闻 2026-06-08 封面">
  <defs>
    <linearGradient id="bg" x1="0" y1="0" x2="1" y2="1">
      <stop offset="0" stop-color="#07111f"/>
      <stop offset="0.48" stop-color="#102a4c"/>
      <stop offset="1" stop-color="#0f3b2f"/>
    </linearGradient>
    <radialGradient id="glow" cx="68%" cy="32%" r="50%">
      <stop offset="0" stop-color="#67e8f9" stop-opacity="0.72"/>
      <stop offset="0.45" stop-color="#38bdf8" stop-opacity="0.16"/>
      <stop offset="1" stop-color="#020617" stop-opacity="0"/>
    </radialGradient>
    <filter id="softShadow" x="-20%" y="-20%" width="140%" height="140%">
      <feDropShadow dx="0" dy="18" stdDeviation="22" flood-color="#000" flood-opacity="0.35"/>
    </filter>
    <pattern id="grid" width="46" height="46" patternUnits="userSpaceOnUse">
      <path d="M46 0H0V46" fill="none" stroke="#93c5fd" stroke-opacity="0.12" stroke-width="1"/>
    </pattern>
  </defs>

  <rect width="1200" height="630" fill="url(#bg)"/>
  <rect width="1200" height="630" fill="url(#glow)"/>
  <rect width="1200" height="630" fill="url(#grid)" opacity="0.65"/>

  <g opacity="0.5">
    <path d="M80 500 C230 410, 350 555, 520 445 S850 330, 1130 410" fill="none" stroke="#22d3ee" stroke-width="3" stroke-opacity="0.35"/>
    <path d="M110 150 C300 240, 405 70, 600 145 S875 280, 1110 190" fill="none" stroke="#a7f3d0" stroke-width="2" stroke-opacity="0.28"/>
  </g>

  <g transform="translate(740 130)" filter="url(#softShadow)">
    <rect x="0" y="0" width="310" height="310" rx="36" fill="#0f172a" stroke="#67e8f9" stroke-opacity="0.45" stroke-width="3"/>
    <rect x="56" y="56" width="198" height="198" rx="22" fill="#111827" stroke="#34d399" stroke-opacity="0.65" stroke-width="2"/>
    <g stroke="#67e8f9" stroke-width="8" stroke-linecap="round" opacity="0.72">
      <path d="M84 22v34M132 22v34M180 22v34M228 22v34"/>
      <path d="M84 254v34M132 254v34M180 254v34M228 254v34"/>
      <path d="M22 84h34M22 132h34M22 180h34M22 228h34"/>
      <path d="M254 84h34M254 132h34M254 180h34M254 228h34"/>
    </g>
    <path d="M98 186c24-58 73-58 100 0M113 133c0-28 24-45 47-45s47 17 47 45" fill="none" stroke="#a7f3d0" stroke-width="12" stroke-linecap="round"/>
    <circle cx="122" cy="158" r="8" fill="#67e8f9"/>
    <circle cx="190" cy="158" r="8" fill="#67e8f9"/>
  </g>

  <g transform="translate(82 92)">
    <text x="0" y="0" fill="#67e8f9" font-family="Inter, Arial, sans-serif" font-size="24" font-weight="700" letter-spacing="3">DAILY TECH BRIEF</text>
    <text x="0" y="92" fill="#f8fafc" font-family="Inter, Arial, sans-serif" font-size="70" font-weight="900">每日科技新闻</text>
    <text x="4" y="154" fill="#cbd5e1" font-family="Inter, Arial, sans-serif" font-size="34" font-weight="600">AI · 芯片 · 半导体 · 量子</text>
    <rect x="0" y="198" width="620" height="2" fill="#67e8f9" opacity="0.55"/>
    <text x="0" y="270" fill="#fef08a" font-family="Inter, Arial, sans-serif" font-size="38" font-weight="800">2026-06-08</text>
    <text x="0" y="326" fill="#e2e8f0" font-family="Inter, Arial, sans-serif" font-size="26" font-weight="500">AI 治理升温，前沿模型、安全评估与算力硬件继续抢占议程</text>
    <g transform="translate(0 382)">
      <rect x="0" y="0" width="176" height="46" rx="23" fill="#22d3ee" fill-opacity="0.14" stroke="#67e8f9" stroke-opacity="0.55"/>
      <text x="28" y="31" fill="#a7f3d0" font-family="Inter, Arial, sans-serif" font-size="20" font-weight="700">Tavily News</text>
      <rect x="198" y="0" width="138" height="46" rx="23" fill="#34d399" fill-opacity="0.12" stroke="#a7f3d0" stroke-opacity="0.5"/>
      <text x="229" y="31" fill="#bfdbfe" font-family="Inter, Arial, sans-serif" font-size="20" font-weight="700">24 Hours</text>
    </g>
  </g>
</svg>
