<svg xmlns="http://www.w3.org/2000/svg" width="1200" height="630" viewBox="0 0 1200 630" role="img" aria-labelledby="title desc">
  <title id="title">每日军事新闻 2026-06-13</title>
  <desc id="desc">无人化、火控系统、防务采购与欧洲再武装成为今日军事新闻主线。</desc>
  <defs>
    <linearGradient id="bg" x1="0" y1="0" x2="1" y2="1">
      <stop offset="0" stop-color="#090b12"/>
      <stop offset="0.48" stop-color="#122018"/>
      <stop offset="1" stop-color="#2b2411"/>
    </linearGradient>
    <linearGradient id="accent" x1="0" y1="0" x2="1" y2="0">
      <stop offset="0" stop-color="#00f0a8"/>
      <stop offset="0.55" stop-color="#f5c542"/>
      <stop offset="1" stop-color="#ff6b35"/>
    </linearGradient>
    <filter id="glow" x="-50%" y="-50%" width="200%" height="200%">
      <feGaussianBlur stdDeviation="7" result="blur"/>
      <feMerge><feMergeNode in="blur"/><feMergeNode in="SourceGraphic"/></feMerge>
    </filter>
    <pattern id="grid" width="42" height="42" patternUnits="userSpaceOnUse">
      <path d="M42 0H0V42" fill="none" stroke="#ffffff" stroke-opacity="0.055" stroke-width="1"/>
    </pattern>
  </defs>
  <rect width="1200" height="630" fill="url(#bg)"/>
  <rect width="1200" height="630" fill="url(#grid)"/>
  <circle cx="960" cy="130" r="210" fill="#00f0a8" opacity="0.10"/>
  <circle cx="1060" cy="510" r="240" fill="#ff6b35" opacity="0.13"/>
  <path d="M70 500 C250 420, 335 560, 520 475 S835 365, 1130 430" fill="none" stroke="url(#accent)" stroke-width="4" opacity="0.65"/>
  <g transform="translate(760 170)" opacity="0.22" stroke="#d8fbe8" stroke-width="2" fill="none">
    <path d="M0 120 L250 20 L420 115 L245 220 Z"/>
    <path d="M250 20 L246 220"/>
    <path d="M0 120 L420 115"/>
    <circle cx="250" cy="20" r="9" fill="#00f0a8"/>
    <circle cx="0" cy="120" r="7" fill="#f5c542"/>
    <circle cx="420" cy="115" r="7" fill="#ff6b35"/>
  </g>
  <g transform="translate(78 76)">
    <rect x="0" y="0" width="208" height="38" rx="19" fill="#101820" stroke="#00f0a8" stroke-opacity="0.55"/>
    <text x="22" y="26" font-family="Arial, 'Noto Sans SC', sans-serif" font-size="18" fill="#bfffe8" letter-spacing="2">DEFENSE DAILY</text>
  </g>
  <text x="76" y="190" font-family="Arial, 'Noto Sans SC', sans-serif" font-size="68" font-weight="800" fill="#ffffff">每日军事新闻</text>
  <text x="80" y="242" font-family="Arial, 'Noto Sans SC', sans-serif" font-size="30" fill="#b7c7be">2026-06-13 · 最近 24h 防务动态</text>
  <rect x="80" y="286" width="650" height="7" rx="3.5" fill="url(#accent)" filter="url(#glow)"/>
  <text x="80" y="365" font-family="Arial, 'Noto Sans SC', sans-serif" font-size="38" font-weight="700" fill="#f4ffe9">无人化、AI 火控、欧洲军购窗口</text>
  <text x="80" y="418" font-family="Arial, 'Noto Sans SC', sans-serif" font-size="28" fill="#d8e3d9">乌克兰经验继续改写装备路线图</text>
  <g transform="translate(82 500)" font-family="Arial, 'Noto Sans SC', sans-serif" font-size="20" fill="#cbd7cc">
    <text>AM General UGV · BAE Fire Control · Eurosatory · Ukraine AI Drones · NATO 5G</text>
  </g>
  <text x="1080" y="575" text-anchor="end" font-family="Arial, 'Noto Sans SC', sans-serif" font-size="20" fill="#90a090">虾博整理</text>
</svg>
