<svg xmlns="http://www.w3.org/2000/svg" width="1200" height="630" viewBox="0 0 1200 630" role="img" aria-labelledby="title desc">
  <title id="title">每日科技新闻 2026-06-06</title>
  <desc id="desc">AI 芯片、HBM4、半导体与 AI 治理主题封面</desc>
  <defs>
    <linearGradient id="bg" x1="0" y1="0" x2="1" y2="1">
      <stop offset="0%" stop-color="#07111f"/>
      <stop offset="48%" stop-color="#0d2240"/>
      <stop offset="100%" stop-color="#120b2b"/>
    </linearGradient>
    <radialGradient id="glowA" cx="22%" cy="25%" r="55%">
      <stop offset="0%" stop-color="#42e8ff" stop-opacity="0.45"/>
      <stop offset="55%" stop-color="#42e8ff" stop-opacity="0.08"/>
      <stop offset="100%" stop-color="#42e8ff" stop-opacity="0"/>
    </radialGradient>
    <radialGradient id="glowB" cx="78%" cy="64%" r="45%">
      <stop offset="0%" stop-color="#a855f7" stop-opacity="0.48"/>
      <stop offset="65%" stop-color="#a855f7" stop-opacity="0.08"/>
      <stop offset="100%" stop-color="#a855f7" stop-opacity="0"/>
    </radialGradient>
    <filter id="softShadow" x="-20%" y="-20%" width="140%" height="140%">
      <feDropShadow dx="0" dy="18" stdDeviation="18" flood-color="#000" flood-opacity="0.35"/>
    </filter>
    <pattern id="grid" width="44" height="44" patternUnits="userSpaceOnUse">
      <path d="M 44 0 L 0 0 0 44" fill="none" stroke="#8bd7ff" stroke-opacity="0.09" stroke-width="1"/>
    </pattern>
  </defs>

  <rect width="1200" height="630" fill="url(#bg)"/>
  <rect width="1200" height="630" fill="url(#glowA)"/>
  <rect width="1200" height="630" fill="url(#glowB)"/>
  <rect width="1200" height="630" fill="url(#grid)"/>

  <!-- diagonal circuit traces -->
  <g fill="none" stroke-linecap="round" opacity="0.7">
    <path d="M60 515 C260 440 300 530 475 440 S760 225 1140 190" stroke="#38bdf8" stroke-opacity="0.32" stroke-width="3"/>
    <path d="M80 150 C235 215 320 105 460 165 S720 315 1120 285" stroke="#a78bfa" stroke-opacity="0.28" stroke-width="3"/>
    <path d="M150 580 L335 455 L520 455 L660 335 L850 335 L1040 210" stroke="#22d3ee" stroke-opacity="0.22" stroke-width="2"/>
  </g>

  <!-- chip block -->
  <g transform="translate(760 150) rotate(-8)" filter="url(#softShadow)">
    <rect x="0" y="0" width="245" height="245" rx="26" fill="#081827" stroke="#67e8f9" stroke-opacity="0.7" stroke-width="3"/>
    <rect x="38" y="38" width="169" height="169" rx="18" fill="#0f2a44" stroke="#a5f3fc" stroke-opacity="0.45" stroke-width="2"/>
    <text x="122.5" y="112" fill="#e0f2fe" font-family="Arial, 'Noto Sans SC', sans-serif" font-size="42" font-weight="800" text-anchor="middle">HBM4</text>
    <text x="122.5" y="150" fill="#67e8f9" font-family="Arial, 'Noto Sans SC', sans-serif" font-size="24" font-weight="700" text-anchor="middle">AI CHIP</text>
    <g stroke="#67e8f9" stroke-opacity="0.65" stroke-width="5">
      <path d="M-22 35 H0M-22 70 H0M-22 105 H0M-22 140 H0M-22 175 H0M-22 210 H0"/>
      <path d="M245 35 H267M245 70 H267M245 105 H267M245 140 H267M245 175 H267M245 210 H267"/>
      <path d="M35 -22 V0M70 -22 V0M105 -22 V0M140 -22 V0M175 -22 V0M210 -22 V0"/>
      <path d="M35 245 V267M70 245 V267M105 245 V267M140 245 V267M175 245 V267M210 245 V267"/>
    </g>
  </g>

  <!-- title -->
  <g transform="translate(82 110)">
    <text x="0" y="0" fill="#67e8f9" font-family="Arial, 'Noto Sans SC', sans-serif" font-size="26" font-weight="800" letter-spacing="5">DAILY TECH NEWS</text>
    <text x="0" y="86" fill="#f8fafc" font-family="Arial, 'Noto Sans SC', sans-serif" font-size="72" font-weight="900">每日科技新闻</text>
    <text x="0" y="142" fill="#c4b5fd" font-family="Arial, 'Noto Sans SC', sans-serif" font-size="34" font-weight="800">AI 芯片 · HBM4 · 半导体 · AI 治理</text>
    <rect x="0" y="188" width="530" height="3" rx="2" fill="#67e8f9" opacity="0.75"/>
    <text x="0" y="245" fill="#e2e8f0" font-family="Arial, 'Noto Sans SC', sans-serif" font-size="30" font-weight="700">2026-06-06 / 偶数天特刊</text>
  </g>

  <!-- bottom cards -->
  <g transform="translate(82 480)" font-family="Arial, 'Noto Sans SC', sans-serif">
    <g>
      <rect x="0" y="0" width="230" height="70" rx="18" fill="#0b2440" stroke="#38bdf8" stroke-opacity="0.45"/>
      <text x="28" y="43" fill="#e0f2fe" font-size="24" font-weight="800">Nvidia 供应链</text>
    </g>
    <g transform="translate(255 0)">
      <rect x="0" y="0" width="210" height="70" rx="18" fill="#171133" stroke="#a78bfa" stroke-opacity="0.45"/>
      <text x="28" y="43" fill="#ede9fe" font-size="24" font-weight="800">TSMC 景气</text>
    </g>
    <g transform="translate(490 0)">
      <rect x="0" y="0" width="230" height="70" rx="18" fill="#162036" stroke="#22d3ee" stroke-opacity="0.45"/>
      <text x="28" y="43" fill="#cffafe" font-size="24" font-weight="800">AI 安全监管</text>
    </g>
  </g>

  <text x="1115" y="575" fill="#94a3b8" font-family="Arial, sans-serif" font-size="22" font-weight="700" text-anchor="end">LingQ Blog · 虾秘</text>
</svg>
