<svg xmlns="http://www.w3.org/2000/svg" width="1200" height="630" viewBox="0 0 1200 630">
  <defs>
    <linearGradient id="bg" x1="0" y1="0" x2="1" y2="1">
      <stop offset="0" stop-color="#07111f"/>
      <stop offset="0.48" stop-color="#102a43"/>
      <stop offset="1" stop-color="#1b4332"/>
    </linearGradient>
    <radialGradient id="glow" cx="70%" cy="35%" r="50%">
      <stop offset="0" stop-color="#4ade80" stop-opacity="0.55"/>
      <stop offset="0.42" stop-color="#22d3ee" stop-opacity="0.22"/>
      <stop offset="1" stop-color="#000" stop-opacity="0"/>
    </radialGradient>
    <filter id="shadow" x="-20%" y="-20%" width="140%" height="140%">
      <feDropShadow dx="0" dy="18" stdDeviation="18" flood-color="#000" flood-opacity="0.35"/>
    </filter>
    <style>
      .mono{font-family: ui-monospace, SFMono-Regular, Menlo, Monaco, Consolas, 'Liberation Mono', monospace;}
      .sans{font-family: Inter, 'Noto Sans SC', 'Microsoft YaHei', Arial, sans-serif;}
    </style>
  </defs>
  <rect width="1200" height="630" fill="url(#bg)"/>
  <rect width="1200" height="630" fill="url(#glow)"/>
  <g opacity="0.22">
    <path d="M0 105H1200M0 210H1200M0 315H1200M0 420H1200M0 525H1200" stroke="#94a3b8" stroke-width="1"/>
    <path d="M120 0V630M240 0V630M360 0V630M480 0V630M600 0V630M720 0V630M840 0V630M960 0V630M1080 0V630" stroke="#94a3b8" stroke-width="1"/>
  </g>
  <g transform="translate(760 95)" filter="url(#shadow)">
    <rect x="0" y="0" width="300" height="300" rx="34" fill="#0f172a" stroke="#67e8f9" stroke-width="3"/>
    <rect x="58" y="58" width="184" height="184" rx="22" fill="#111827" stroke="#4ade80" stroke-width="3"/>
    <g stroke="#67e8f9" stroke-width="8" stroke-linecap="round">
      <path d="M36 70H0M36 120H0M36 180H0M36 230H0"/>
      <path d="M300 70H264M300 120H264M300 180H264M300 230H264"/>
      <path d="M70 36V0M120 36V0M180 36V0M230 36V0"/>
      <path d="M70 300V264M120 300V264M180 300V264M230 300V264"/>
    </g>
    <text x="150" y="170" text-anchor="middle" class="mono" font-size="58" font-weight="800" fill="#4ade80">AI</text>
  </g>
  <g transform="translate(92 96)">
    <text class="mono" font-size="24" fill="#67e8f9" letter-spacing="4">DAILY TECH NEWS</text>
    <text class="sans" x="0" y="92" font-size="70" font-weight="900" fill="#f8fafc">每日科技新闻</text>
    <text class="sans" x="0" y="158" font-size="34" font-weight="700" fill="#bbf7d0">AI · 芯片 · 半导体</text>
    <rect x="0" y="206" width="585" height="2" fill="#4ade80" opacity="0.85"/>
    <text class="sans" x="0" y="270" font-size="30" fill="#e2e8f0">算力需求继续拉动半导体超级周期</text>
    <text class="sans" x="0" y="320" font-size="30" fill="#e2e8f0">国产替代进入软件栈与生态攻坚</text>
    <g transform="translate(0 382)">
      <rect x="0" y="0" width="210" height="54" rx="27" fill="#22c55e" opacity="0.95"/>
      <text x="105" y="36" text-anchor="middle" class="mono" font-size="22" font-weight="800" fill="#052e16">2026-06-02</text>
      <rect x="232" y="0" width="150" height="54" rx="27" fill="#0f172a" stroke="#67e8f9" stroke-width="2"/>
      <text x="307" y="36" text-anchor="middle" class="sans" font-size="22" font-weight="700" fill="#67e8f9">星期二</text>
    </g>
  </g>
  <text x="92" y="585" class="sans" font-size="22" fill="#94a3b8">XiaBo Briefing · Tavily News Search · Last 24h</text>
</svg>
