<svg xmlns="http://www.w3.org/2000/svg" width="1200" height="630" viewBox="0 0 1200 630">
  <defs>
    <linearGradient id="bg" x1="0" y1="0" x2="1" y2="1">
      <stop offset="0%" stop-color="#07111f"/>
      <stop offset="45%" stop-color="#10223f"/>
      <stop offset="100%" stop-color="#0f766e"/>
    </linearGradient>
    <radialGradient id="glow" cx="72%" cy="32%" r="50%">
      <stop offset="0%" stop-color="#67e8f9" stop-opacity="0.55"/>
      <stop offset="55%" stop-color="#38bdf8" stop-opacity="0.16"/>
      <stop offset="100%" stop-color="#000000" stop-opacity="0"/>
    </radialGradient>
    <filter id="shadow" x="-20%" y="-20%" width="140%" height="140%">
      <feDropShadow dx="0" dy="16" stdDeviation="22" flood-color="#000" flood-opacity="0.35"/>
    </filter>
    <pattern id="grid" width="42" height="42" patternUnits="userSpaceOnUse">
      <path d="M42 0H0V42" fill="none" stroke="#ffffff" stroke-opacity="0.07" stroke-width="1"/>
    </pattern>
  </defs>
  <rect width="1200" height="630" fill="url(#bg)"/>
  <rect width="1200" height="630" fill="url(#glow)"/>
  <rect width="1200" height="630" fill="url(#grid)"/>

  <g opacity="0.28">
    <circle cx="1000" cy="120" r="120" fill="none" stroke="#a7f3d0" stroke-width="2"/>
    <circle cx="1000" cy="120" r="72" fill="none" stroke="#67e8f9" stroke-width="2"/>
    <path d="M855 125h290M1000 -25v290" stroke="#67e8f9" stroke-width="1"/>
  </g>

  <g transform="translate(720 250)" filter="url(#shadow)">
    <rect x="0" y="0" width="280" height="210" rx="28" fill="#06111f" stroke="#67e8f9" stroke-opacity="0.75" stroke-width="3"/>
    <rect x="42" y="42" width="196" height="126" rx="18" fill="#0f2a44" stroke="#a7f3d0" stroke-opacity="0.65"/>
    <g stroke="#67e8f9" stroke-width="6" stroke-linecap="round" opacity="0.9">
      <path d="M-32 42H0M-32 84H0M-32 126H0M-32 168H0"/>
      <path d="M280 42h32M280 84h32M280 126h32M280 168h32"/>
      <path d="M52 -32V0M104 -32V0M156 -32V0M208 -32V0"/>
      <path d="M52 210v32M104 210v32M156 210v32M208 210v32"/>
    </g>
    <path d="M82 112h42l24-44 36 86 24-42h36" fill="none" stroke="#facc15" stroke-width="8" stroke-linecap="round" stroke-linejoin="round"/>
  </g>

  <g transform="translate(82 86)">
    <text x="0" y="0" fill="#a7f3d0" font-family="Inter, Arial, 'Noto Sans SC', sans-serif" font-size="28" font-weight="700" letter-spacing="3">DAILY TECH NEWS</text>
    <text x="0" y="88" fill="#ffffff" font-family="Inter, Arial, 'Noto Sans SC', sans-serif" font-size="72" font-weight="900">每日科技新闻</text>
    <text x="0" y="150" fill="#d1fae5" font-family="Inter, Arial, 'Noto Sans SC', sans-serif" font-size="34" font-weight="700">AI · 芯片 · 半导体 · 算力主权</text>
    <text x="0" y="214" fill="#bae6fd" font-family="Inter, Arial, 'Noto Sans SC', sans-serif" font-size="30">2026 年 6 月 14 日｜偶数天科技线</text>
  </g>

  <g transform="translate(82 424)">
    <rect x="0" y="0" width="540" height="98" rx="24" fill="#020617" fill-opacity="0.45" stroke="#67e8f9" stroke-opacity="0.35"/>
    <text x="30" y="40" fill="#ffffff" font-family="Inter, Arial, 'Noto Sans SC', sans-serif" font-size="26" font-weight="800">今日主线</text>
    <text x="30" y="74" fill="#d1fae5" font-family="Inter, Arial, 'Noto Sans SC', sans-serif" font-size="22">模型管制、台积电、低温类脑芯片、企业 AI 转型</text>
  </g>

  <text x="82" y="580" fill="#94a3b8" font-family="Inter, Arial, sans-serif" font-size="20">Generated by XiaBo · Tavily News Digest</text>
</svg>
