<svg xmlns="http://www.w3.org/2000/svg" viewBox="0 0 1200 630">
  <defs>
    <linearGradient id="bg" x1="0%" y1="0%" x2="100%" y2="100%">
      <stop offset="0%" style="stop-color:#1a1a2e;stop-opacity:1" />
      <stop offset="50%" style="stop-color:#16213e;stop-opacity:1" />
      <stop offset="100%" style="stop-color:#0f3460;stop-opacity:1" />
    </linearGradient>
    <linearGradient id="accent" x1="0%" y1="0%" x2="100%" y2="0%">
      <stop offset="0%" style="stop-color:#e94560;stop-opacity:1" />
      <stop offset="100%" style="stop-color:#ff6b6b;stop-opacity:1" />
    </linearGradient>
    <linearGradient id="laser" x1="0%" y1="0%" x2="100%" y2="0%">
      <stop offset="0%" style="stop-color:#00ff88;stop-opacity:0" />
      <stop offset="30%" style="stop-color:#00ff88;stop-opacity:1" />
      <stop offset="70%" style="stop-color:#00ff88;stop-opacity:1" />
      <stop offset="100%" style="stop-color:#00ff88;stop-opacity:0" />
    </linearGradient>
    <filter id="glow">
      <feGaussianBlur stdDeviation="3" result="coloredBlur"/>
      <feMerge>
        <feMergeNode in="coloredBlur"/>
        <feMergeNode in="SourceGraphic"/>
      </feMerge>
    </filter>
    <filter id="laserGlow">
      <feGaussianBlur stdDeviation="6" result="coloredBlur"/>
      <feMerge>
        <feMergeNode in="coloredBlur"/>
        <feMergeNode in="SourceGraphic"/>
      </feMerge>
    </filter>
  </defs>

  <rect width="1200" height="630" fill="url(#bg)"/>

  <g stroke="#ffffff" stroke-opacity="0.05" stroke-width="1">
    <line x1="0" y1="100" x2="1200" y2="100"/>
    <line x1="0" y1="200" x2="1200" y2="200"/>
    <line x1="0" y1="300" x2="1200" y2="300"/>
    <line x1="0" y1="400" x2="1200" y2="400"/>
    <line x1="0" y1="500" x2="1200" y2="500"/>
    <line x1="200" y1="0" x2="200" y2="630"/>
    <line x1="400" y1="0" x2="400" y2="630"/>
    <line x1="600" y1="0" x2="600" y2="630"/>
    <line x1="800" y1="0" x2="800" y2="630"/>
    <line x1="1000" y1="0" x2="1000" y2="630"/>
  </g>

  <!-- Frigate silhouette + radar -->
  <g transform="translate(820, 90)" filter="url(#glow)">
    <!-- Shield outline -->
    <path d="M100 20 L180 50 L180 120 C180 180 100 220 100 220 C100 220 20 180 20 120 L20 50 Z"
          fill="none" stroke="url(#accent)" stroke-width="3"/>
    <!-- Radar sweep -->
    <circle cx="100" cy="115" r="55" fill="none" stroke="#e94560" stroke-width="1.5" stroke-opacity="0.4"/>
    <circle cx="100" cy="115" r="35" fill="none" stroke="#e94560" stroke-width="1.5" stroke-opacity="0.6"/>
    <circle cx="100" cy="115" r="15" fill="none" stroke="#e94560" stroke-width="1.5"/>
    <circle cx="100" cy="115" r="5" fill="#e94560"/>
    <line x1="100" y1="115" x2="148" y2="80" stroke="#00ff88" stroke-width="2"/>
  </g>

  <!-- Laser beams -->
  <g filter="url(#laserGlow)">
    <line x1="850" y1="190" x2="1200" y2="160" stroke="url(#laser)" stroke-width="4"/>
    <line x1="900" y1="210" x2="1200" y2="220" stroke="url(#laser)" stroke-width="2" stroke-opacity="0.6"/>
  </g>

  <!-- Decorative circles -->
  <circle cx="150" cy="500" r="80" fill="url(#accent)" fill-opacity="0.1"/>
  <circle cx="150" cy="500" r="60" fill="url(#accent)" fill-opacity="0.15"/>
  <circle cx="150" cy="500" r="40" fill="url(#accent)" fill-opacity="0.2"/>

  <text x="80" y="280" fill="#ffffff" font-size="72" font-weight="bold" font-family="Arial, sans-serif">
    每日军事新闻
  </text>

  <text x="80" y="340" fill="#e94560" font-size="32" font-family="Arial, sans-serif" font-weight="300">
    Daily Military News Digest
  </text>

  <g transform="translate(80, 420)">
    <rect x="0" y="-40" width="280" height="60" rx="8" fill="url(#accent)" filter="url(#glow)"/>
    <text x="140" y="5" fill="#ffffff" font-size="28" font-weight="bold" font-family="Arial, sans-serif" text-anchor="middle">
      2026-05-25
    </text>
  </g>

  <g transform="translate(80, 520)">
    <text x="0" y="0" fill="#a0a0a0" font-size="18" font-family="Arial, sans-serif">
      瑞典扩军 · 合成血液 · 乌克兰防空 · 以色列军贸
    </text>
  </g>

  <path d="M1100 0 L1200 0 L1200 100 L1150 100 L1150 50 L1100 50 Z" fill="url(#accent)" fill-opacity="0.3"/>
  <path d="M0 530 L0 630 L100 630 L100 580 L50 580 L50 530 Z" fill="url(#accent)" fill-opacity="0.3"/>
</svg>
