<svg width="1200" height="630" viewBox="0 0 1200 630" fill="none" xmlns="http://www.w3.org/2000/svg">
  <defs>
    <linearGradient id="bg" x1="0" y1="0" x2="1200" y2="630" gradientUnits="userSpaceOnUse">
      <stop stop-color="#07110D"/>
      <stop offset="0.52" stop-color="#16251A"/>
      <stop offset="1" stop-color="#3A2F18"/>
    </linearGradient>
    <radialGradient id="radar" cx="0" cy="0" r="1" gradientUnits="userSpaceOnUse" gradientTransform="translate(920 170) rotate(120) scale(430 430)">
      <stop stop-color="#9DFF9D" stop-opacity="0.32"/>
      <stop offset="1" stop-color="#9DFF9D" stop-opacity="0"/>
    </radialGradient>
    <filter id="shadow" x="-20%" y="-20%" width="140%" height="140%"><feDropShadow dx="0" dy="18" stdDeviation="18" flood-color="#000" flood-opacity="0.35"/></filter>
  </defs>
  <rect width="1200" height="630" fill="url(#bg)"/>
  <rect width="1200" height="630" fill="url(#radar)"/>
  <path d="M0 480 C190 415 335 500 520 438 C705 376 840 404 1200 318 V630 H0 V480Z" fill="#0B1B13" opacity="0.86"/>
  <path d="M738 146 L1060 72 L962 155 L1068 212 L730 216 L640 305 L606 274 L673 170 L738 146Z" fill="#A6B08A" opacity="0.92" filter="url(#shadow)"/>
  <path d="M650 182 L1047 82 L702 209 Z" fill="#D5D9B7" opacity="0.35"/>
  <circle cx="931" cy="177" r="132" stroke="#8DFF8D" stroke-opacity="0.22" stroke-width="2"/>
  <circle cx="931" cy="177" r="218" stroke="#8DFF8D" stroke-opacity="0.15" stroke-width="2"/>
  <path d="M930 177 L1110 116" stroke="#8DFF8D" stroke-opacity="0.55" stroke-width="3"/>
  <g opacity="0.18" stroke="#C8FFC8" stroke-width="1">
    <path d="M72 88 H406"/><path d="M72 118 H330"/><path d="M72 148 H448"/>
    <path d="M76 520 H1120"/><path d="M76 556 H1030"/>
  </g>
  <text x="76" y="104" fill="#A5FF9B" font-family="Arial, 'Noto Sans SC', sans-serif" font-size="24" letter-spacing="4">DAILY DEFENSE BRIEF</text>
  <text x="74" y="228" fill="#F5F2D8" font-family="Arial, 'Noto Sans SC', sans-serif" font-size="66" font-weight="800">每日军事新闻</text>
  <text x="78" y="296" fill="#D2D7B0" font-family="Arial, 'Noto Sans SC', sans-serif" font-size="32" font-weight="600">无人机防御 · 军贸 · 国防预算 · 装备采购</text>
  <rect x="76" y="348" width="444" height="58" rx="29" fill="#C9A227" opacity="0.95"/>
  <text x="104" y="386" fill="#07110D" font-family="Arial, 'Noto Sans SC', sans-serif" font-size="28" font-weight="800">2026-06-03 奇数天特刊</text>
  <text x="76" y="574" fill="#A6B08A" font-family="Arial, 'Noto Sans SC', sans-serif" font-size="22">LingQ Blog · Recent 24h Military / Defense News</text>
</svg>
