<svg viewBox="0 0 24 24" fill="#00A1D6" xmlns="http://www.w3.org/2000/svg">
  <path d="M17.34 5.34a1.2 1.2 0 11-1.7-1.7 1.2 1.2 0 011.7 1.7zM7.2 6.6a1.2 1.2 0 11-2.4 0 1.2 1.2 0 012.4 0z"/>
  <path d="M20.28 9.86c-.12-.68-.73-1.16-1.42-1.16H5.14c-.69 0-1.3.48-1.42 1.16L3 14.5v3.5h3.5v-2.5h11v2.5h3.5v-3.5l-.72-4.64zM9 13.5a1.5 1.5 0 110-3 1.5 1.5 0 010 3zm6 0a1.5 1.5 0 110-3 1.5 1.5 0 010 3z" fill="#00A1D6"/>
  <circle cx="9" cy="12" r="1" fill="#FFF"/>
  <circle cx="15" cy="12" r="1" fill="#FFF"/>
</svg>
