<svg viewBox="0 0 24 24" fill="#181717" xmlns="http://www.w3.org/2000/svg">
  <path d="M12.001 0C5.373 0 0 5.373 0 12c0 5.308 3.438 9.8 8.207 11.387.599.111.793-.261.793-.577 0-.285-.01-1.04-.015-2.04-3.338.726-4.042-1.61-4.042-1.61-.546-1.387-1.333-1.756-1.333-1.756-1.089-.745.083-.729.083-.729 1.205.085 1.839 1.237 1.839 1.237 1.07 1.834 2.807 1.304 3.492.997.107-.775.418-1.305.762-1.604-2.665-.305-5.467-1.332-5.467-5.93 0-1.311.469-2.381 1.235-3.221-.124-.303-.535-1.524.117-3.176 0 0 1.008-.322 3.301 1.23A11.509 11.509 0 0112 5.803c1.02.005 2.047.138 3.006.404 2.291-1.552 3.297-1.23 3.297-1.23.653 1.653.242 2.874.118 3.176.77.84 1.235 1.911 1.235 3.221 0 4.61-2.807 5.625-5.479 5.921.43.372.823 1.102.823 2.222 0 1.606-.015 2.896-.015 3.286 0 .315.192.69.801.57C20.566 21.797 24 17.3 24 12c0-6.627-5.373-12-12-12z"/>
</svg>
