<svg viewBox="0 0 24 24" fill="#000000" xmlns="http://www.w3.org/2000/svg">
  <path d="M12.525.02c1.31-.02 2.61-.01 3.91-.02.08 1.53.63 3.09 1.75 4.17 1.12 1.11 2.7 1.62 4.24 1.79v4.03c-1.44-.05-2.89-.35-4.2-.97-.57-.26-1.1-.59-1.62-.93v6.16c0 2.52-1.12 4.84-2.9 6.24-1.72 1.39-4.02 1.94-6.18 1.45-2.91-.62-5.29-2.95-6.02-5.86-.76-2.95.23-6.14 2.56-8.09 2.36-1.97 5.74-2.4 8.53-1.06v4.22c-.98-.55-2.18-.69-3.27-.36-1.39.42-2.43 1.65-2.57 3.09-.15 1.49.74 2.93 2.13 3.48 1.39.55 3.02.08 3.93-1.13.56-.74.84-1.66.84-2.58V.02h-1.13z"/>
</svg>
