<svg viewBox="0 0 24 24" fill="currentColor" xmlns="http://www.w3.org/2000/svg">
  <path d="M12.001 2.002c-5.522 0-9.999 4.477-9.999 9.999 0 4.99 3.663 9.127 8.437 9.878.348.055.696.085 1.041.085.99 0 1.887-.309 2.636-.836.569.388 1.253.615 1.984.615 2.069 0 3.75-1.681 3.75-3.75 0-.363-.053-.713-.148-1.047.917-1.454 1.45-3.174 1.45-5.025 0-5.522-4.477-9.999-9.999-9.999zm-.866 14.763c-.396.28-.87.446-1.38.446-.388 0-.754-.098-1.079-.27L7.5 16.33v-5.5l2.25 1.125v3.75l.517.258c.197.098.417.153.65.153.23 0 .447-.054.644-.15l.008-.004V9.752h1.125v7.013zm5.365-1.015c0 1.449-1.177 2.625-2.625 2.625-1.449 0-2.625-1.176-2.625-2.625 0-1.448 1.176-2.625 2.625-2.625 1.448 0 2.625 1.177 2.625 2.625zm-2.625-3.75c-2.069 0-3.75 1.681-3.75 3.75 0 2.07 1.681 3.75 3.75 3.75 2.07 0 3.75-1.68 3.75-3.75 0-2.069-1.68-3.75-3.75-3.75z"/>
</svg>
